<svg 
width="1440" 
height="886" 
viewBox="0 0 1440 886" 
fill="none" 
xmlns="http://www.w3.org/2000/svg">
<path d="M-100.143 414.238C-100.143 414.238 251.395 -168.23 336.686 204.252C421.976 576.734 476.267 680.796 599.778 632.071C723.29 583.345 845.196 370.685 987.117 382.167C1129.04 393.65 1166.05 791.964 1282.33 776.4C1398.62 760.837 1580.6 534.187 1580.6 534.187" stroke="url(#paint0_linear)" stroke-width="3" stroke-linecap="round" stroke-linejoin="round"/>
<path d="M-28.1242 63.4751C-28.1242 63.4751 19.5639 546.831 199.147 616.341C378.729 685.851 518.657 206.408 690.815 259.987C862.973 313.567 739.545 730.048 897.861 768.424C1056.18 806.8 1188 452.859 1342.76 462.888C1497.51 472.917 1630.58 811.238 1630.58 811.238" stroke="url(#paint1_linear)" stroke-width="3" stroke-linecap="round" stroke-linejoin="round"/>
<path d="M-87.5638 366.36C-87.5638 366.36 244.983 -149.494 336.167 204.052C427.351 557.599 486.994 625.191 613.546 582.86C740.098 540.529 846.671 367.189 989.616 380.353C1132.56 393.516 1175.5 744.814 1294.19 730.85C1412.88 716.886 1591.8 525.547 1591.8 525.547" stroke="url(#paint2_linear)" stroke-width="3"/>
<path d="M-75.067 318.745C-75.067 318.745 238.49 -130.495 335.567 204.116C432.643 538.726 497.639 569.85 627.231 533.913C756.824 497.976 848.063 363.958 992.034 378.802C1136 393.646 1184.86 697.928 1305.96 685.564C1427.05 673.199 1602.92 517.171 1602.92 517.171" stroke="url(#paint3_linear)" stroke-width="3"/>
<path d="M-63.5495 274.278C-63.5495 274.278 231.016 -108.348 333.987 207.327C436.957 523.002 507.305 517.656 639.937 488.113C772.57 458.57 848.476 363.873 993.471 380.398C1138.47 396.923 1193.25 654.189 1316.75 643.425C1440.25 632.66 1613.06 511.942 1613.06 511.942" stroke="url(#paint4_linear)" stroke-width="3"/>
<path d="M-55.103 239.677C-55.103 239.677 220.472 -76.3347 329.336 220.404C438.199 517.143 513.899 475.329 649.573 452.18C785.246 429.031 845.819 373.655 991.838 391.861C1137.86 410.067 1198.57 620.317 1324.47 611.152C1450.38 601.987 1620.13 516.58 1620.13 516.58" stroke="url(#paint5_linear)" stroke-width="3"/>
<path d="M-46.6544 205.077C-46.6544 205.077 209.93 -44.3209 324.687 233.482C439.444 511.286 520.496 433.002 659.21 416.247C797.923 399.492 843.163 383.438 990.207 403.325C1137.25 423.212 1203.89 586.446 1332.2 578.88C1460.51 571.314 1627.2 521.218 1627.2 521.218" stroke="url(#paint6_linear)" stroke-width="3"/>
<path d="M-38.2079 170.477C-38.2079 170.477 199.386 -12.3076 320.036 246.56C440.686 505.427 527.091 390.675 668.845 380.314C810.599 369.953 840.505 393.22 988.574 414.788C1136.64 436.355 1209.21 552.574 1339.92 546.608C1470.63 540.641 1634.27 525.856 1634.27 525.856" stroke="url(#paint7_linear)" stroke-width="3"/>
<path d="M-29.7613 135.876C-29.7613 135.876 188.842 19.7057 315.385 259.637C441.929 499.569 533.686 348.348 678.48 344.381C823.274 340.414 837.847 403.003 986.941 426.251C1136.03 449.499 1214.52 518.702 1347.64 514.335C1480.76 509.968 1641.34 530.493 1641.34 530.493" stroke="url(#paint8_linear)" stroke-width="3"/>
<path d="M-18.2149 83.8545C-18.2149 83.8545 162.407 100.912 300.737 302.973C439.067 505.033 541.528 280.873 692.404 289.694C843.279 298.516 827.185 439.747 978.328 466.357C1129.47 492.967 1219.81 468.138 1357.74 466.97C1495.66 465.802 1650.13 556.949 1650.13 556.949" stroke="url(#paint9_linear)" stroke-width="3"/>
<path d="M-18.3225 76.7397C-18.3225 76.7397 143.309 160.411 287.532 343.536C431.755 526.661 539.569 266.032 693.485 281.247C847.4 296.462 815.973 477.015 968.141 505.306C1120.31 533.597 1216.58 461.752 1356.91 462.183C1497.24 462.615 1648.65 589.072 1648.65 589.072" stroke="url(#paint10_linear)" stroke-width="3"/>
<path d="M-19.3975 72.7329C-19.3975 72.7329 123.244 223.019 273.36 387.208C423.476 551.396 536.642 254.298 693.598 275.908C850.554 297.517 803.793 517.391 956.986 547.363C1110.18 577.335 1212.37 458.473 1355.11 460.505C1497.84 462.536 1646.2 624.304 1646.2 624.304" stroke="url(#paint11_linear)" stroke-width="3"/>
<path d="M-20.8722 70.0108C-20.8722 70.0108 102.778 286.911 258.788 432.164C414.797 577.417 533.316 243.85 693.312 271.853C853.309 299.857 791.214 559.052 945.432 590.705C1099.65 622.357 1207.77 456.48 1352.91 460.111C1498.05 463.742 1643.34 660.82 1643.34 660.82" stroke="url(#paint12_linear)" stroke-width="3"/>
<path d="M-22.5474 67.9386C-22.5474 67.9386 82.1125 351.452 244.015 477.77C405.918 604.087 529.789 234.051 692.826 268.448C855.862 302.846 778.435 601.363 933.677 634.696C1088.92 668.03 1202.96 455.136 1350.51 460.367C1498.05 465.597 1640.29 697.986 1640.29 697.986" stroke="url(#paint13_linear)" stroke-width="3"/>
<path d="M-24.3412 66.2419C-24.3412 66.2419 61.3281 416.37 229.124 523.751C396.92 631.133 526.143 224.628 692.22 265.419C858.298 306.211 765.537 644.049 921.803 679.063C1078.07 714.078 1198.04 454.168 1347.99 460.998C1497.94 467.828 1637.12 735.528 1637.12 735.528" stroke="url(#paint14_linear)" stroke-width="3"/>
<path d="M-26.2082 64.7794C-26.2082 64.7794 40.4705 481.521 214.16 569.967C387.849 658.413 522.424 215.438 691.542 262.624C860.66 309.81 752.565 686.969 909.857 723.664C1067.15 760.36 1193.05 453.434 1345.4 461.864C1497.75 470.293 1633.88 773.304 1633.88 773.304" stroke="url(#paint15_linear)" stroke-width="3"/>
<defs>
<linearGradient id="paint0_linear" x1="808.676" y1="254.285" x2="674.105" y2="686.678" gradientUnits="userSpaceOnUse">
<stop stop-color="#88A4BA"/>
<stop offset="0.484375" stop-color="#0082E3"/>
<stop offset="0.958333" stop-color="#2B4B9C"/>
</linearGradient>
<linearGradient id="paint1_linear" x1="842.766" y1="303.896" x2="697.202" y2="771.609" gradientUnits="userSpaceOnUse">
<stop stop-color="#88A4BA"/>
<stop offset="0.484375" stop-color="#0082E3"/>
<stop offset="0.958333" stop-color="#2B4B9C"/>
</linearGradient>
<linearGradient id="paint2_linear" x1="810.806" y1="257.385" x2="691.18" y2="641.758" gradientUnits="userSpaceOnUse">
<stop stop-color="#88A4BA"/>
<stop offset="0.484375" stop-color="#0082E3"/>
<stop offset="0.958333" stop-color="#2B4B9C"/>
</linearGradient>
<linearGradient id="paint3_linear" x1="812.937" y1="260.485" x2="707.695" y2="598.638" gradientUnits="userSpaceOnUse">
<stop stop-color="#88A4BA"/>
<stop offset="0.484375" stop-color="#0082E3"/>
<stop offset="0.958333" stop-color="#2B4B9C"/>
</linearGradient>
<linearGradient id="paint4_linear" x1="815.067" y1="263.586" x2="722.503" y2="561.004" gradientUnits="userSpaceOnUse">
<stop stop-color="#88A4BA"/>
<stop offset="0.484375" stop-color="#0082E3"/>
<stop offset="0.958333" stop-color="#2B4B9C"/>
</linearGradient>
<linearGradient id="paint5_linear" x1="817.197" y1="266.687" x2="733.206" y2="536.56" gradientUnits="userSpaceOnUse">
<stop stop-color="#88A4BA"/>
<stop offset="0.484375" stop-color="#0082E3"/>
<stop offset="0.958333" stop-color="#2B4B9C"/>
</linearGradient>
<linearGradient id="paint6_linear" x1="819.33" y1="269.788" x2="742.603" y2="516.319" gradientUnits="userSpaceOnUse">
<stop stop-color="#88A4BA"/>
<stop offset="0.484375" stop-color="#0082E3"/>
<stop offset="0.958333" stop-color="#2B4B9C"/>
</linearGradient>
<linearGradient id="paint7_linear" x1="821.46" y1="272.889" x2="750.544" y2="500.749" gradientUnits="userSpaceOnUse">
<stop stop-color="#88A4BA"/>
<stop offset="0.484375" stop-color="#0082E3"/>
<stop offset="0.958333" stop-color="#2B4B9C"/>
</linearGradient>
<linearGradient id="paint8_linear" x1="823.59" y1="275.989" x2="757.034" y2="489.842" gradientUnits="userSpaceOnUse">
<stop stop-color="#88A4BA"/>
<stop offset="0.484375" stop-color="#0082E3"/>
<stop offset="0.958333" stop-color="#2B4B9C"/>
</linearGradient>
<linearGradient id="paint9_linear" x1="827.851" y1="282.19" x2="760.778" y2="497.703" gradientUnits="userSpaceOnUse">
<stop stop-color="#88A4BA"/>
<stop offset="0.484375" stop-color="#0082E3"/>
<stop offset="0.958333" stop-color="#2B4B9C"/>
</linearGradient>
<linearGradient id="paint10_linear" x1="829.981" y1="285.292" x2="755.132" y2="525.792" gradientUnits="userSpaceOnUse">
<stop stop-color="#88A4BA"/>
<stop offset="0.484375" stop-color="#0082E3"/>
<stop offset="0.958333" stop-color="#2B4B9C"/>
</linearGradient>
<linearGradient id="paint11_linear" x1="832.112" y1="288.392" x2="747.625" y2="559.859" gradientUnits="userSpaceOnUse">
<stop stop-color="#88A4BA"/>
<stop offset="0.484375" stop-color="#0082E3"/>
<stop offset="0.958333" stop-color="#2B4B9C"/>
</linearGradient>
<linearGradient id="paint12_linear" x1="834.242" y1="291.493" x2="738.952" y2="597.67" gradientUnits="userSpaceOnUse">
<stop stop-color="#88A4BA"/>
<stop offset="0.484375" stop-color="#0082E3"/>
<stop offset="0.958333" stop-color="#2B4B9C"/>
</linearGradient>
<linearGradient id="paint13_linear" x1="836.374" y1="294.593" x2="729.423" y2="638.239" gradientUnits="userSpaceOnUse">
<stop stop-color="#88A4BA"/>
<stop offset="0.484375" stop-color="#0082E3"/>
<stop offset="0.958333" stop-color="#2B4B9C"/>
</linearGradient>
<linearGradient id="paint14_linear" x1="838.505" y1="297.694" x2="719.213" y2="680.994" gradientUnits="userSpaceOnUse">
<stop stop-color="#88A4BA"/>
<stop offset="0.484375" stop-color="#0082E3"/>
<stop offset="0.958333" stop-color="#2B4B9C"/>
</linearGradient>
<linearGradient id="paint15_linear" x1="840.635" y1="300.795" x2="708.442" y2="725.546" gradientUnits="userSpaceOnUse">
<stop stop-color="#88A4BA"/>
<stop offset="0.484375" stop-color="#0082E3"/>
<stop offset="0.958333" stop-color="#2B4B9C"/>
</linearGradient>
</defs>
</svg>
